<?xml version="1.0" standalone="no"?>
<!DOCTYPE svg PUBLIC "-//W3C//DTD SVG 20010904//EN"
 "http://www.w3.org/TR/2001/REC-SVG-20010904/DTD/svg10.dtd">
<svg version="1.0" xmlns="http://www.w3.org/2000/svg"
 width="515.000000pt" height="484.000000pt" viewBox="0 0 515.000000 484.000000"
 preserveAspectRatio="xMidYMid meet">

<g transform="translate(0.000000,484.000000) scale(0.100000,-0.100000)"
fill="#000000" stroke="none">
<path d="M2369 4545 c-167 -27 -300 -88 -440 -201 l-79 -64 -43 18 c-30 12
-70 17 -137 17 -120 0 -167 -20 -254 -107 -74 -75 -112 -148 -128 -252 -29
-188 63 -375 225 -456 33 -16 53 -32 46 -34 -8 -3 -49 -14 -93 -26 -102 -28
-160 -53 -207 -91 -67 -53 -75 -135 -19 -183 48 -40 93 -49 207 -43 l104 5 19
-38 c10 -20 42 -58 70 -83 96 -86 104 -160 35 -293 -25 -48 -43 -89 -40 -92 3
-3 14 -6 24 -7 42 -3 140 209 125 270 -5 22 -3 22 108 -16 253 -85 484 -72
736 42 157 71 335 223 366 315 21 62 20 93 -3 153 l-19 50 31 10 c38 14 56 -1
88 -72 20 -43 24 -68 23 -142 -1 -97 -21 -190 -92 -420 -55 -176 -64 -239 -60
-384 l3 -123 -72 -37 c-39 -20 -96 -43 -125 -50 -140 -34 -132 -31 -114 -49
12 -12 36 -17 84 -18 86 -2 92 -2 92 -12 0 -9 -130 -58 -142 -54 -5 1 -8 -3
-8 -10 0 -6 -3 -8 -6 -5 -4 4 -20 -5 -36 -18 -17 -14 -42 -25 -59 -25 -16 0
-40 -9 -52 -20 -12 -11 -27 -18 -34 -16 -7 3 -15 1 -19 -5 -3 -6 -12 -8 -19
-5 -7 2 -18 -1 -25 -7 -10 -10 -10 -7 -1 11 17 31 61 57 154 88 42 14 77 29
77 34 0 4 -14 13 -31 20 -23 10 -33 10 -38 2 -4 -7 -20 -14 -37 -18 l-30 -6
-28 89 c-72 223 -88 263 -119 285 -34 24 -104 30 -627 47 -173 6 -382 16 -465
21 -82 6 -167 11 -188 13 l-38 2 22 24 c21 23 25 23 183 21 186 -2 201 -1 191
8 -11 12 -328 28 -357 19 -40 -13 -88 -72 -88 -108 0 -17 16 -69 36 -117 67
-161 66 -155 37 -198 -34 -49 -63 -143 -63 -203 0 -26 9 -73 19 -103 43 -124
107 -185 205 -195 l56 -6 30 -81 c17 -44 36 -94 42 -109 6 -15 23 -38 39 -50
27 -21 27 -23 17 -77 -10 -54 -5 -271 8 -339 7 -34 6 -34 -65 37 -68 67 -138
112 -174 112 -36 0 -57 -37 -57 -100 l0 -61 -31 16 c-17 9 -48 15 -72 13 -57
-4 -76 -37 -59 -97 38 -126 267 -377 463 -508 165 -109 242 -126 307 -65 30
28 52 84 52 135 0 15 2 27 4 27 2 0 44 -18 93 -41 119 -55 268 -103 400 -130
152 -30 442 -38 567 -15 48 10 89 16 91 14 1 -2 10 -26 20 -54 42 -120 131
-194 217 -180 115 19 223 134 308 327 63 146 55 137 165 183 119 50 165 74
265 134 276 166 542 451 670 717 120 248 119 501 -2 611 -60 53 -120 77 -199
77 -129 0 -237 -74 -384 -263 -43 -55 -81 -100 -84 -100 -3 0 -25 96 -48 213
-42 214 -74 329 -163 577 -50 138 -101 324 -120 440 -5 36 -15 171 -20 300 -7
151 -17 266 -28 323 -10 48 -16 90 -13 92 2 3 15 5 27 5 56 0 80 106 42 179
-32 62 -64 83 -126 83 -47 -1 -54 2 -74 31 -36 52 -153 190 -189 223 -58 53
-180 131 -273 175 -156 73 -396 104 -577 74z m376 -70 c67 -18 121 -41 130
-55 3 -6 -1 -10 -9 -10 -8 0 -18 5 -21 10 -3 6 -11 10 -17 10 -7 0 -6 -5 1
-14 10 -12 8 -17 -11 -27 -20 -11 -21 -10 -11 3 21 24 -21 61 -63 56 -18 -2
-30 0 -27 6 4 5 -6 6 -23 2 -31 -8 -64 -9 -158 -3 -32 2 -83 -2 -115 -10 -31
-8 -67 -17 -81 -20 -23 -6 -23 -7 -5 -15 17 -7 16 -7 -5 -4 -14 3 -43 -2 -65
-10 -22 -8 -47 -17 -57 -20 -60 -20 -208 -118 -208 -137 0 -2 12 -2 28 0 21 4
24 2 12 -6 -8 -6 -25 -11 -37 -11 -23 0 -31 -14 -13 -25 5 -3 7 -11 4 -18 -3
-9 -18 -1 -46 25 l-41 38 24 26 c56 60 241 165 349 197 126 38 346 44 465 12z
m155 -95 c0 -5 -5 -10 -11 -10 -5 0 -7 5 -4 10 3 6 8 10 11 10 2 0 4 -4 4 -10z
m-80 -14 c0 -3 -4 -8 -10 -11 -5 -3 -10 -1 -10 4 0 6 5 11 10 11 6 0 10 -2 10
-4z m230 -27 c55 -33 55 -34 38 -45 -7 -5 -8 -3 -3 6 5 8 3 11 -6 8 -8 -3 -13
-10 -12 -15 3 -14 -34 -8 -85 12 l-43 18 38 18 c21 9 34 18 30 18 -5 1 -18 -4
-30 -11 -20 -10 -21 -10 -8 5 18 23 23 22 81 -14z m-440 11 c-8 -5 -22 -9 -30
-9 -10 0 -8 3 5 9 27 12 43 12 25 0z m93 -7 c-7 -2 -19 -2 -25 0 -7 3 -2 5 12
5 14 0 19 -2 13 -5z m-73 -14 c-12 -8 -8 -9 15 -5 29 5 29 5 -5 -10 -19 -9
-51 -25 -70 -37 -33 -19 -34 -19 -15 -1 11 11 29 24 40 29 19 8 19 9 -5 13
l-25 5 25 8 c14 4 32 7 40 8 13 1 13 0 0 -10z m-504 -24 c-11 -8 -24 -15 -30
-15 -5 0 -1 7 10 15 10 8 24 14 29 14 6 0 1 -6 -9 -14z m766 -16 c122 -26 246
-126 304 -246 26 -53 29 -67 29 -173 0 -111 -1 -117 -35 -185 -89 -179 -264
-277 -442 -247 -85 15 -189 67 -240 120 -58 59 -108 161 -119 241 -35 248 166
494 408 500 23 1 66 -4 95 -10z m-1071 -42 c64 -38 135 -116 167 -185 24 -51
27 -68 27 -170 0 -113 0 -114 -29 -138 -15 -14 -30 -23 -32 -22 -2 2 4 31 12
63 35 134 -6 279 -106 368 -184 166 -460 39 -497 -228 -7 -55 12 -167 38 -218
49 -95 143 -165 245 -182 39 -6 62 0 169 39 14 6 12 0 -11 -21 -42 -41 -136
-61 -207 -44 -278 64 -371 457 -158 669 85 85 130 103 251 99 72 -3 92 -7 131
-30z m693 17 c-18 -14 -18 -14 1 -8 16 6 18 4 8 -6 -10 -11 -15 -11 -27 0 -19
15 -14 25 14 27 21 2 22 1 4 -13z m664 -23 c28 -24 30 -46 3 -29 -11 7 -17 17
-14 23 4 5 2 6 -2 2 -13 -12 -15 -36 -3 -44 7 -3 8 -1 4 5 -4 7 -2 12 3 12 6
0 11 -7 11 -15 0 -18 -5 -18 -31 -4 -11 5 -16 15 -13 21 4 6 3 8 -4 4 -6 -3
-13 -2 -17 4 -3 5 1 10 10 10 11 0 15 5 11 15 -8 21 14 18 42 -4z m-1449 -47
c36 -8 38 -16 11 -54 -16 -23 -18 -34 -10 -54 12 -33 16 -33 35 3 8 16 22 36
30 45 28 27 67 -3 106 -81 31 -63 34 -75 34 -163 0 -85 -3 -101 -29 -150 -15
-30 -40 -68 -55 -84 -31 -34 -135 -86 -171 -86 -32 0 -118 30 -154 53 -42 28
-101 128 -116 196 -46 219 120 415 319 375z m351 -16 c0 -6 -6 -5 -15 2 -8 7
-15 14 -15 16 0 2 7 1 15 -2 8 -4 15 -11 15 -16z m360 8 c-20 -20 -9 -29 13
-10 20 17 20 17 -2 -8 -13 -15 -27 -25 -32 -23 -4 3 -9 -1 -12 -7 -2 -7 -3 3
-2 22 3 43 1 39 25 37 13 -1 16 -5 10 -11z m-385 -26 c3 -5 2 -10 -4 -10 -5 0
-13 5 -16 10 -3 6 -2 10 4 10 5 0 13 -4 16 -10z m-28 -42 c-3 -8 -6 -5 -6 6
-1 11 2 17 5 13 3 -3 4 -12 1 -19z m1266 -7 c-2 -6 2 -11 8 -11 5 0 8 -4 4 -9
-3 -5 -17 -8 -30 -5 -18 3 -25 0 -25 -11 0 -9 4 -13 10 -10 6 3 7 -1 4 -9 -12
-32 -30 -15 -25 23 2 7 -2 10 -8 6 -7 -4 -8 0 -4 10 5 13 7 14 14 3 8 -12 13
-4 10 16 -1 5 5 3 14 -4 13 -11 14 -10 9 5 -5 13 -3 16 7 13 8 -3 13 -11 12
-17z m-1233 -50 c0 -45 -6 -37 -13 18 -4 29 -2 40 4 30 5 -7 9 -29 9 -48z
m310 55 c0 -3 -4 -8 -10 -11 -5 -3 -10 -1 -10 4 0 6 5 11 10 11 6 0 10 -2 10
-4z m22 -32 c-9 -16 -10 -14 -9 8 1 15 6 23 11 18 4 -4 4 -16 -2 -26z m1159
-110 c20 -21 24 -36 24 -87 0 -56 -2 -62 -22 -65 -18 -3 -24 4 -32 35 -6 21
-11 46 -11 55 0 39 -52 39 -212 2 -25 -6 -28 -4 -28 19 0 22 6 28 38 36 150
39 210 40 243 5z m-1242 -73 c27 -14 41 -28 41 -41 0 -25 -11 -25 -60 0 -52
26 -142 27 -193 1 l-37 -19 0 23 c0 29 16 42 66 54 56 14 135 6 183 -18z
m1140 -71 c8 -34 11 -63 8 -67 -3 -3 -9 8 -13 23 -9 38 -22 54 -45 54 -11 0
-19 5 -19 10 0 6 -5 9 -11 8 -6 -2 -13 2 -16 9 -4 10 15 16 67 22 12 1 20 -16
29 -59z m-149 16 c0 -3 -4 -8 -10 -11 -5 -3 -10 -1 -10 4 0 6 5 11 10 11 6 0
10 -2 10 -4z m57 -22 c-3 -3 -12 -4 -19 -1 -8 3 -5 6 6 6 11 1 17 -2 13 -5z
m-50 -20 c3 -8 1 -20 -6 -27 -14 -14 -15 -30 -1 -22 6 4 2 -9 -7 -28 -12 -23
-21 -31 -26 -23 -5 6 -6 -2 -4 -19 2 -16 2 -24 0 -17 -3 6 -9 12 -14 12 -5 0
-2 16 6 36 8 20 15 49 15 64 0 40 24 56 37 24z m83 6 c0 -5 -5 -10 -11 -10 -5
0 -7 5 -4 10 3 6 8 10 11 10 2 0 4 -4 4 -10z m-30 -10 c0 -5 -2 -10 -4 -10 -3
0 -8 5 -11 10 -3 6 -1 10 4 10 6 0 11 -4 11 -10z m-1104 -58 c15 -9 2 -11 -62
-12 -74 0 -85 -3 -125 -31 -24 -17 -61 -49 -81 -70 -25 -26 -46 -39 -63 -39
l-26 0 18 31 c26 45 95 101 151 122 51 19 154 18 188 -1z m1114 -26 c0 -2 -7
-6 -15 -10 -8 -3 -15 -1 -15 4 0 6 7 10 15 10 8 0 15 -2 15 -4z m-50 -16 c0
-5 -4 -10 -10 -10 -5 0 -10 5 -10 10 0 6 5 10 10 10 6 0 10 -4 10 -10z m137
-22 c-3 -8 -6 -5 -6 6 -1 11 2 17 5 13 3 -3 4 -12 1 -19z m28 -77 c-4 -10 -9
-11 -16 -4 -7 7 -8 28 -3 59 l8 49 8 -45 c4 -25 6 -51 3 -59z m-62 31 c8 -17
13 -19 20 -10 6 9 7 7 3 -5 -3 -10 -6 -23 -6 -28 0 -5 -9 -9 -19 -9 -11 0 -22
-6 -24 -12 -8 -19 -8 45 0 83 3 19 8 27 10 19 3 -8 9 -25 16 -38z m-179 22 c3
-8 2 -12 -4 -9 -6 3 -10 0 -10 -8 0 -8 -6 -20 -14 -26 -11 -9 -10 -4 2 24 19
40 18 40 26 19z m23 -36 c-3 -8 -6 -5 -6 6 -1 11 2 17 5 13 3 -3 4 -12 1 -19z
m-25 -20 c-7 -7 -12 -8 -12 -2 0 6 3 14 7 17 3 4 9 5 12 2 2 -3 -1 -11 -7 -17z
m215 -50 c-3 -7 -5 -2 -5 12 0 14 2 19 5 13 2 -7 2 -19 0 -25z m42 -16 l-2
-37 -7 35 -7 35 -3 -35 c-1 -20 -4 -27 -7 -17 -7 26 6 69 17 62 6 -3 9 -23 9
-43z m-1293 0 c71 -19 171 -68 273 -133 47 -29 62 -34 110 -32 126 3 297 20
318 31 19 10 24 8 42 -14 43 -55 22 -143 -55 -232 -52 -61 -206 -174 -216
-159 -7 11 -12 3 -9 -15 0 -5 -4 -8 -9 -8 -6 0 -10 8 -11 18 0 10 -3 12 -6 5
-2 -7 -12 -13 -21 -14 -11 0 -12 -2 -4 -6 17 -7 15 -20 -4 -27 -8 -3 -12 -2
-9 3 3 5 1 12 -5 16 -5 3 -10 2 -10 -4 0 -6 -8 -8 -17 -5 -15 5 -15 3 1 -10
11 -9 15 -16 9 -16 -7 0 -18 7 -27 15 -16 16 -15 16 -55 -31 -8 -9 -23 -14
-37 -11 -13 2 -21 0 -18 -4 8 -14 -9 -10 -30 6 -11 8 -16 15 -10 15 5 1 -2 7
-15 14 -24 13 -23 14 35 32 32 10 75 28 94 41 19 13 38 23 42 23 4 0 30 14 56
30 27 17 57 30 66 30 10 0 15 4 11 9 -10 18 13 21 26 4 12 -14 12 -16 0 -8 -9
5 -12 4 -7 -3 9 -16 36 -3 29 14 -3 8 0 14 6 14 6 0 14 -14 19 -31 l8 -32 11
26 c10 22 10 25 -2 20 -8 -3 -15 0 -15 6 0 6 5 11 10 11 6 0 10 5 10 11 0 8
-6 7 -17 -2 -15 -12 -16 -12 -10 4 7 19 -9 24 -16 5 -3 -7 -6 -8 -6 -3 0 6 19
31 43 57 24 26 47 56 51 67 8 27 22 27 30 1 3 -11 11 -20 16 -20 15 0 10 54
-7 78 -9 13 -11 22 -4 22 6 0 8 5 5 10 -3 6 -1 10 5 10 6 0 9 4 6 8 -7 11 -66
2 -66 -10 0 -5 5 -6 12 -2 7 4 8 3 4 -4 -4 -7 -17 -12 -29 -12 -26 0 -67 -26
-67 -42 0 -6 13 -8 29 -6 21 3 28 1 24 -9 -3 -7 -10 -11 -16 -10 -7 1 -11 -4
-9 -11 4 -19 -31 -59 -46 -54 -10 3 -10 7 0 19 7 9 -18 -3 -55 -26 -83 -50
-160 -77 -253 -85 -94 -9 -206 16 -392 87 -211 82 -300 101 -457 101 -112 0
-138 -3 -189 -23 -33 -13 -70 -35 -82 -48 l-23 -25 -6 25 c-9 36 19 84 63 106
47 23 142 54 252 81 47 12 133 43 191 71 58 27 126 54 150 59 62 13 201 4 285
-18z m975 -9 c11 -15 11 -16 -1 -5 -26 23 -34 12 -9 -14 17 -19 19 -23 6 -18
-20 7 -39 38 -30 48 10 10 20 7 34 -11z m-48 -18 c4 -8 1 -17 -5 -21 -7 -5 -8
-2 -3 6 6 10 4 12 -10 6 -15 -5 -16 -4 -5 9 15 19 16 19 23 0z m287 -65 c0
-22 -4 -40 -10 -40 -5 0 -10 18 -10 40 0 22 5 40 10 40 6 0 10 -18 10 -40z
m-318 18 c-9 -9 -8 -15 3 -28 13 -14 13 -17 0 -17 -8 0 -12 4 -9 9 3 4 -2 11
-11 14 -14 6 -14 8 2 20 22 17 31 18 15 2z m398 -4 c0 -8 -4 -13 -9 -9 -5 3
-12 -7 -14 -22 -4 -27 -4 -27 -6 4 -1 26 5 35 27 42 1 1 2 -6 2 -15z m-120
-30 c0 -13 -4 -24 -10 -24 -5 0 -10 14 -10 31 0 17 4 28 10 24 6 -3 10 -17 10
-31z m67 -16 c-3 -7 -5 -2 -5 12 0 14 2 19 5 13 2 -7 2 -19 0 -25z m61 -65 c1
-49 -2 -104 -7 -123 -8 -31 -9 -32 -10 -8 -1 14 -5 28 -11 30 -6 2 -7 19 -2
43 l7 40 6 -45 6 -45 1 58 c1 32 -2 57 -8 57 -13 0 -13 36 0 61 6 10 12 19 13
19 2 0 4 -39 5 -87z m-41 15 c-3 -7 -5 -2 -5 12 0 14 2 19 5 13 2 -7 2 -19 0
-25z m-280 -10 c-3 -8 -6 -5 -6 6 -1 11 2 17 5 13 3 -3 4 -12 1 -19z m-26 -24
c2 3 5 -7 5 -20 2 -30 1 -29 -20 16 -11 23 -12 29 -3 18 8 -10 16 -16 18 -14z
m26 -86 c-3 -8 -6 -5 -6 6 -1 11 2 17 5 13 3 -3 4 -12 1 -19z m-21 -45 c-10
-10 -19 5 -10 18 6 11 8 11 12 0 2 -7 1 -15 -2 -18z m-571 -63 c-3 -5 -12 -10
-18 -10 -7 0 -6 4 3 10 19 12 23 12 15 0z m552 -12 c-3 -8 -6 -5 -6 6 -1 11 2
17 5 13 3 -3 4 -12 1 -19z m-1497 -9 c0 -18 62 -68 130 -103 56 -29 153 -59
264 -81 44 -9 16 -29 -37 -27 -96 4 -253 79 -330 159 -47 48 -56 63 -37 63 6
0 10 -5 10 -11z m940 -3 c0 -2 -7 -7 -16 -10 -8 -3 -12 -2 -9 4 6 10 25 14 25
6z m601 -21 c5 4 6 -1 3 -9 -9 -24 -24 -19 -23 7 0 12 3 16 6 9 2 -6 9 -10 14
-7z m-41 -15 c0 -11 -2 -20 -4 -20 -2 0 -6 9 -9 20 -3 11 -1 20 4 20 5 0 9 -9
9 -20z m150 6 c0 -3 -4 -8 -10 -11 -5 -3 -10 -1 -10 4 0 6 5 11 10 11 6 0 10
-2 10 -4z m-72 -64 c2 -7 -2 -12 -8 -12 -18 0 -40 -27 -40 -49 0 -11 -4 -23
-10 -26 -5 -3 -10 -42 -10 -86 0 -46 -4 -79 -10 -79 -5 0 -10 -18 -10 -40 0
-22 -4 -40 -10 -40 -5 0 -10 20 -10 44 0 49 -7 76 -21 76 -5 0 -9 -9 -9 -21 0
-11 3 -18 8 -16 4 3 6 -33 4 -79 -3 -81 -5 -85 -25 -82 -14 2 -27 15 -34 33
-11 29 -12 29 -13 5 0 -22 -2 -23 -11 -7 -6 10 -7 26 -3 35 4 9 8 22 8 27 7
50 19 73 37 70 21 -4 24 2 9 25 -8 12 -10 12 -10 1 0 -8 -2 -12 -5 -9 -3 3 -1
16 4 29 7 17 10 19 10 7 1 -10 6 -18 12 -18 7 0 8 7 4 18 -11 28 -13 62 -3 55
6 -3 8 6 6 23 -3 16 -3 23 -1 16 3 -7 9 -9 15 -6 8 5 9 -1 4 -17 -13 -42 -14
-69 -4 -75 14 -9 23 5 11 17 -16 16 5 76 28 82 15 4 19 15 19 45 0 31 5 45 22
56 24 17 39 17 46 -2z m309 -44 c-3 -7 -5 -2 -5 12 0 14 2 19 5 13 2 -7 2 -19
0 -25z m-287 -9 c0 -12 -21 -11 -40 1 -13 9 -13 11 0 19 15 10 40 -3 40 -20z
m-137 -14 c-3 -9 -8 -14 -10 -11 -3 3 -2 9 2 15 9 16 15 13 8 -4z m-766 -11
c-3 -3 -12 -4 -19 -1 -8 3 -5 6 6 6 11 1 17 -2 13 -5z m1198 -4 c-3 -5 2 -21
11 -35 9 -14 12 -25 6 -25 -5 0 -12 10 -16 23 -5 19 -8 20 -17 7 -9 -13 -10
-12 -5 3 3 10 6 23 6 28 0 5 5 9 11 9 5 0 7 -4 4 -10z m-1160 -9 c-3 -5 5 -13
17 -17 l23 -7 -23 -8 c-29 -11 -159 -23 -150 -14 6 6 44 11 112 14 14 1 16 4
7 14 -11 14 -5 27 11 27 5 0 7 -4 3 -9z m929 -23 c-7 -22 -34 -56 -34 -43 0 9
33 65 38 65 2 0 0 -10 -4 -22z m-1157 6 c-3 -3 -12 -4 -19 -1 -8 3 -5 6 6 6
11 1 17 -2 13 -5z m180 0 c-3 -3 -12 -4 -19 -1 -8 3 -5 6 6 6 11 1 17 -2 13
-5z m-257 -14 c-8 -5 -22 -10 -30 -10 -13 0 -13 1 0 10 8 5 22 10 30 10 13 0
13 -1 0 -10z m1262 -17 c-3 -16 -7 -22 -10 -15 -4 13 4 42 11 42 2 0 2 -12 -1
-27z m85 -25 c-3 -7 -5 -2 -5 12 0 14 2 19 5 13 2 -7 2 -19 0 -25z m108 -8
c-3 -5 -12 -10 -18 -10 -7 0 -6 4 3 10 19 12 23 12 15 0z m-225 -4 c0 -2 -7
-7 -16 -10 -8 -3 -12 -2 -9 4 6 10 25 14 25 6z m250 -63 c0 -13 -4 -10 -15 11
-19 36 -19 41 0 22 8 -8 15 -23 15 -33z m30 -39 c-9 -31 -10 -28 -14 51 l-3
40 13 -31 c9 -21 10 -41 4 -60z m-80 60 c0 -8 -4 -12 -10 -9 -5 3 -10 10 -10
16 0 5 5 9 10 9 6 0 10 -7 10 -16z m-314 -31 c-11 -11 -19 6 -11 24 8 17 8 17
12 0 3 -10 2 -21 -1 -24z m203 21 c-17 -21 -13 -65 9 -83 13 -10 14 -12 2 -9
-8 3 -22 16 -30 30 -11 21 -12 31 -2 52 6 14 17 26 23 26 8 0 7 -5 -2 -16z
m85 -30 c3 -11 0 -29 -8 -40 -15 -18 -15 -18 -9 3 3 12 0 37 -6 55 -10 29 -10
31 3 18 7 -8 17 -24 20 -36z m-250 20 c3 -8 2 -12 -4 -9 -6 3 -10 10 -10 16 0
14 7 11 14 -7z m96 -50 c34 6 42 -9 9 -17 -28 -8 -59 13 -58 38 0 18 1 17 10
-4 8 -20 14 -22 39 -17z m175 -32 c-15 -16 -16 -15 -4 12 7 15 15 23 17 16 3
-7 -3 -19 -13 -28z m-237 8 c7 -11 18 -17 27 -14 11 5 13 2 9 -10 -3 -9 -10
-16 -15 -16 -5 0 -9 -13 -9 -30 0 -16 -4 -30 -10 -30 -5 0 -10 9 -10 20 0 15
-7 20 -25 20 -22 0 -25 4 -25 40 0 35 3 40 23 40 12 0 28 -9 35 -20z m355 0
c3 -11 1 -18 -4 -14 -5 3 -9 12 -9 20 0 20 7 17 13 -6z m-40 -52 c5 -33 -10
-66 -23 -51 -4 4 -11 25 -14 46 -6 32 -4 37 12 37 15 0 21 -9 25 -32z m67 -32
c0 -6 -4 -4 -10 4 -14 23 -24 -13 -11 -39 13 -24 14 -34 2 -26 -5 3 -12 -5
-14 -17 -2 -13 -4 -5 -3 17 0 22 -3 51 -7 65 -6 19 -6 21 2 10 9 -12 11 -10
11 10 1 24 1 24 15 6 8 -11 15 -25 15 -30z m-119 -9 c-8 -8 -11 -7 -11 2 0 11
-3 11 -15 1 -19 -15 -30 -7 -21 16 3 9 12 14 21 10 8 -3 15 0 15 7 0 7 5 4 11
-6 8 -14 8 -22 0 -30z m-154 19 c-4 -10 -1 -13 9 -9 7 3 14 0 14 -6 0 -7 -20
-11 -50 -11 -53 0 -57 3 -37 25 17 20 71 20 64 1z m-348 -40 c0 -7 -2 -6 -6 2
-2 6 -9 10 -14 6 -5 -3 -9 2 -9 12 0 13 3 14 15 4 8 -7 15 -18 14 -24z m631
-1 c0 -8 -4 -15 -10 -15 -5 0 -10 7 -10 15 0 8 5 15 10 15 6 0 10 -7 10 -15z
m-453 -37 c16 -27 11 -50 -33 -134 -24 -47 -42 -89 -40 -92 3 -3 10 6 15 19
l10 24 0 -25 c1 -15 -5 -32 -11 -39 -11 -11 -10 -13 5 -8 9 4 17 2 17 -3 0 -6
5 -10 11 -10 6 0 8 8 6 18 -3 9 -8 35 -11 57 l-6 40 14 -30 c15 -31 16 -6 1
28 -4 10 -5 20 -3 23 12 11 30 -58 21 -79 -18 -43 -6 -57 48 -57 l49 0 0 -81
0 -81 -45 6 c-25 3 -65 9 -90 12 -42 6 -45 4 -45 -17 0 -12 -3 -20 -6 -17 -3
4 -5 9 -4 13 0 3 -9 18 -21 33 l-21 27 36 3 c35 3 36 5 36 43 0 41 -12 50 -29
22 -9 -16 -12 -16 -21 -3 -13 20 -13 4 0 -21 15 -26 -6 -26 -22 1 -7 11 -17
20 -22 20 -5 0 -2 -8 7 -18 22 -24 10 -37 -12 -14 -9 10 -13 13 -8 8 4 -6 7
-17 7 -26 0 -13 -2 -13 -11 0 -9 12 -12 13 -16 1 -5 -11 -7 -11 -14 0 -7 11
-12 10 -26 -5 -17 -18 -17 -18 0 -13 9 4 17 2 17 -5 0 -7 -12 -8 -32 -4 -30 6
-31 5 -13 -8 23 -17 65 -21 65 -6 0 6 5 10 11 10 6 0 9 -6 6 -14 -3 -8 -2 -16
4 -18 5 -2 -18 -3 -51 -3 -57 0 -76 7 -47 18 6 3 2 4 -9 4 -15 -1 -20 -6 -16
-16 4 -10 -5 -6 -24 9 l-31 25 59 32 c138 74 219 165 236 264 6 32 14 47 32
56 17 9 19 13 9 13 -9 0 -19 7 -23 15 -7 19 29 21 41 3z m353 6 c0 -7 -27 -34
-34 -34 -3 0 -6 9 -6 20 0 13 7 20 20 20 11 0 20 -3 20 -6z m113 -18 c4 -10 1
-13 -9 -9 -15 6 -19 23 -5 23 5 0 11 -7 14 -14z m-313 -6 c0 -5 18 -10 40 -10
36 0 40 -2 40 -25 0 -18 5 -25 19 -25 10 0 21 7 25 15 8 22 36 18 36 -5 0 -11
-7 -20 -15 -20 -8 0 -15 -4 -15 -10 0 -5 -11 -10 -25 -10 -24 0 -25 -3 -25
-60 l0 -60 -40 0 c-33 0 -40 3 -40 20 0 17 -7 20 -51 20 -31 0 -48 4 -44 10 3
6 26 10 51 10 42 0 44 1 44 30 0 29 -1 30 -50 30 -47 0 -63 11 -40 25 6 4 8
11 4 16 -3 6 -3 21 0 35 5 20 12 24 46 24 22 0 40 -4 40 -10z m-1650 -35 c616
-29 643 -31 663 -53 15 -17 117 -320 117 -347 0 -8 -13 -21 -29 -29 -56 -29
-91 -66 -91 -96 0 -16 4 -31 10 -35 5 -3 1 -14 -10 -25 -38 -38 -23 -94 35
-130 19 -12 35 -28 35 -36 0 -47 80 -100 180 -118 35 -6 35 -7 69 -112 27 -87
31 -108 20 -115 -18 -11 -11 -12 -329 11 -151 10 -423 29 -603 42 -181 12
-335 27 -343 33 -8 6 -34 60 -58 120 l-44 110 27 16 c47 29 64 56 58 92 -3 20
0 40 9 52 25 33 18 80 -17 109 -17 14 -35 26 -40 26 -4 0 -6 12 -3 28 4 18 -1
35 -14 52 -19 24 -95 61 -152 74 -26 6 -25 3 -116 240 -19 49 -34 95 -34 102
0 19 40 18 660 -11z m1540 -1 c0 -14 -4 -23 -10 -19 -5 3 -10 15 -10 26 0 10
5 19 10 19 6 0 10 -12 10 -26z m-240 -58 c5 -5 7 1 4 15 -5 23 -5 23 13 -3 16
-25 32 -33 56 -29 12 2 -8 -32 -30 -50 -26 -22 -44 -32 -42 -22 1 4 1 19 -1
33 -1 23 -2 23 -10 5 -6 -14 -8 3 -8 50 1 39 3 57 5 40 3 -16 8 -34 13 -39z
m124 34 c-6 -6 -10 -3 -10 10 0 13 4 16 10 10 7 -7 7 -13 0 -20z m466 -20 c0
-5 -4 -10 -10 -10 -5 0 -10 5 -10 10 0 6 5 10 10 10 6 0 10 -4 10 -10z m104
-34 c-3 -15 -8 -25 -11 -23 -2 3 -1 17 3 31 3 15 8 25 11 23 2 -3 1 -17 -3
-31z m6 -42 c0 0 -9 -9 -20 -19 -19 -18 -20 -17 -20 1 0 13 7 20 20 20 11 0
20 -1 20 -2z m11 -17 c-10 -9 -11 -8 -5 6 3 10 9 15 12 12 3 -3 0 -11 -7 -18z
m16 -29 c-3 -8 -6 -5 -6 6 -1 11 2 17 5 13 3 -3 4 -12 1 -19z m-30 -10 c-3 -8
-6 -5 -6 6 -1 11 2 17 5 13 3 -3 4 -12 1 -19z m-20 -10 c-3 -8 -6 -5 -6 6 -1
11 2 17 5 13 3 -3 4 -12 1 -19z m54 -21 c-10 -9 -11 -8 -5 6 3 10 9 15 12 12
3 -3 0 -11 -7 -18z m-41 -61 c0 -10 9 -26 19 -35 11 -10 23 -29 26 -44 7 -26
5 -27 -29 -27 l-36 0 0 78 c0 53 3 72 10 62 5 -8 10 -23 10 -34z m70 -26 c0
-5 -5 -10 -11 -10 -5 0 -7 5 -4 10 3 6 8 10 11 10 2 0 4 -4 4 -10z m-170 -30
c0 -5 -2 -10 -4 -10 -3 0 -8 5 -11 10 -3 6 -1 10 4 10 6 0 11 -4 11 -10z
m-2467 -23 c2 -7 29 -19 58 -26 57 -15 114 -39 106 -47 -2 -3 -15 -1 -28 4
-13 5 -57 15 -96 22 -74 13 -78 16 -67 44 7 19 20 21 27 3z m2503 -27 c21 0
24 -4 24 -40 0 -39 -1 -40 -34 -40 -19 0 -37 -6 -39 -12 -3 -7 -6 13 -6 46 -1
49 1 57 15 52 9 -3 27 -6 40 -6z m888 -20 c20 -12 48 -43 63 -68 26 -44 28
-54 28 -167 0 -111 -2 -125 -28 -180 -25 -54 -73 -132 -88 -145 -3 -3 -26 -33
-51 -66 -49 -67 -118 -139 -186 -194 -61 -49 -184 -130 -197 -130 -8 0 -9 18
-2 68 5 37 7 117 5 178 -5 120 -11 135 -84 214 -23 25 -34 48 -39 80 -6 44 -4
48 65 140 79 105 187 220 238 252 85 52 208 61 276 18z m-1078 -5 c1 -14 -2
-22 -8 -19 -5 3 -17 -4 -27 -15 -26 -30 -31 -26 -31 19 0 38 1 40 33 40 27 0
32 -4 33 -25z m-511 -3 c-3 -3 -11 0 -18 7 -9 10 -8 11 6 5 10 -3 15 -9 12
-12z m624 -9 c0 -25 -1 -26 -9 -8 -12 27 -12 35 0 35 6 0 10 -12 9 -27z m132
18 c-11 -7 -9 -10 8 -16 15 -4 21 -14 20 -33 -2 -24 -2 -24 -6 -5 -4 19 -8 21
-24 13 -17 -10 -19 -7 -19 20 0 22 5 30 18 30 13 0 14 -2 3 -9z m71 -26 c-2
-14 -8 -25 -12 -25 -5 0 -11 -8 -13 -17 -3 -12 -5 -8 -6 9 -1 35 8 58 24 58 8
0 10 -9 7 -25z m-707 -25 c3 -5 1 -10 -4 -10 -6 0 -11 5 -11 10 0 6 2 10 4 10
3 0 8 -4 11 -10z m655 -80 c-20 -12 -30 -3 -30 29 0 41 11 45 28 10 13 -26 13
-32 2 -39z m-683 28 c-3 -7 -5 -2 -5 12 0 14 2 19 5 13 2 -7 2 -19 0 -25z
m351 8 c-7 -8 -15 -12 -17 -11 -5 6 10 25 20 25 5 0 4 -6 -3 -14z m-2053 -30
c19 -8 35 -18 35 -21 0 -8 -50 5 -80 21 -36 19 0 18 45 0z m1658 -1 c4 -8 3
-16 -1 -19 -4 -3 -9 4 -9 15 -2 23 3 25 10 4z m608 -18 c-10 -9 -11 -8 -5 6 3
10 9 15 12 12 3 -3 0 -11 -7 -18z m-604 -109 c-3 -7 -5 -2 -5 12 0 14 2 19 5
13 2 -7 2 -19 0 -25z m513 -13 c-6 -8 -8 -20 -4 -27 5 -9 4 -10 -4 -3 -9 8 -9
19 1 44 8 21 13 27 15 17 2 -10 -2 -23 -8 -31z m213 38 c-7 -2 -19 -2 -25 0
-7 3 -2 5 12 5 14 0 19 -2 13 -5z m7 -42 c0 -5 -7 -12 -16 -15 -22 -9 -24 -8
-24 9 0 8 9 15 20 15 11 0 20 -4 20 -9z m-29 -73 l1 -43 8 38 c10 53 20 58 20
10 0 -23 -5 -43 -12 -45 -7 -3 -9 -11 -4 -24 7 -16 10 -13 21 21 16 49 19 27
4 -25 -9 -29 -16 -36 -30 -33 -10 3 -16 9 -13 15 3 5 3 27 -1 48 -7 39 -8 40
-46 40 -49 0 -51 -17 -7 -71 26 -32 32 -48 29 -79 -2 -26 3 -45 13 -56 9 -8
16 -23 16 -32 0 -15 -2 -15 -10 -2 -8 12 -10 9 -10 -12 0 -23 -5 -28 -24 -28
-25 0 -33 -21 -40 -110 -2 -26 -10 -39 -29 -50 -15 -8 -27 -21 -27 -27 0 -7
-4 -13 -10 -13 -12 0 -13 17 -2 23 4 3 5 35 4 71 -2 41 -8 64 -14 60 -6 -4 -8
-44 -5 -103 2 -53 1 -87 -4 -76 -4 11 -8 30 -8 43 -1 21 -5 22 -76 22 l-75 0
0 -36 c0 -23 -6 -42 -17 -50 -22 -17 -63 -18 -63 -2 0 9 -3 9 -12 0 -7 -7 -25
-12 -40 -12 -15 0 -28 -4 -28 -10 0 -5 -4 -10 -10 -10 -5 0 -10 14 -10 30 0
17 3 30 8 30 4 0 8 21 8 48 1 33 -1 41 -6 27 -5 -11 -9 -32 -9 -47 -1 -16 -5
-28 -10 -28 -13 0 -10 -52 5 -67 7 -7 19 -11 26 -8 8 3 28 -1 44 -10 28 -15
28 -15 7 -21 -13 -4 -21 -10 -18 -14 2 -4 -7 -13 -20 -20 -14 -7 -27 -22 -31
-32 -3 -11 -15 -40 -26 -64 l-19 -45 -33 43 c-33 42 -33 43 -19 85 8 24 19 40
24 37 5 -3 9 2 9 10 0 8 8 19 18 25 16 9 16 11 -3 25 -15 12 -16 15 -5 16 10
0 22 23 34 68 11 37 22 72 26 77 4 6 7 30 7 55 0 25 -2 35 -4 23 -5 -25 -18
-30 -26 -10 -3 6 -6 -17 -7 -53 -1 -36 -8 -83 -16 -105 l-14 -40 6 35 c11 72
13 87 15 168 1 75 4 84 23 91 11 5 34 4 50 0 38 -11 44 -4 20 22 -19 22 -19
22 5 14 15 -5 21 -4 17 3 -3 6 8 21 26 33 18 13 35 26 38 29 3 4 25 8 48 8 48
2 62 7 62 24 0 6 -6 6 -15 -2 -9 -7 -18 -10 -22 -6 -3 3 -1 6 5 6 7 0 12 7 12
15 0 12 7 14 28 9 15 -4 29 -11 30 -16 2 -4 12 -8 22 -8 16 0 19 8 19 60 0 32
2 64 6 70 3 5 42 10 86 10 l79 0 1 -42z m63 27 c-4 -8 -8 -15 -10 -15 -2 0 -4
7 -4 15 0 8 4 15 10 15 5 0 7 -7 4 -15z m-767 -1 c-3 -3 -12 -4 -19 -1 -8 3
-5 6 6 6 11 1 17 -2 13 -5z m514 -37 c-8 -8 -11 -7 -11 4 0 20 13 34 18 19 3
-7 -1 -17 -7 -23z m-51 -22 c0 -12 -19 -12 -23 0 -4 9 -1 12 9 8 7 -3 14 -7
14 -8z m-47 -32 c-7 -3 -13 -11 -13 -19 0 -8 -4 -14 -10 -14 -15 0 -12 11 7
32 9 10 19 15 22 12 3 -4 0 -9 -6 -11z m-299 -119 c12 -90 6 -233 -14 -339
-25 -130 -36 -154 -61 -148 -25 7 -65 -20 -84 -57 -24 -46 -33 -187 -24 -370
5 -91 11 -174 13 -186 5 -17 -1 -23 -32 -32 -208 -63 -615 -24 -889 85 -212
83 -392 234 -464 388 -52 110 -64 175 -64 347 0 86 3 159 6 162 5 6 198 -6
635 -39 105 -8 292 -20 415 -27 252 -13 261 -12 293 57 16 33 15 37 -9 94 -38
91 -38 91 58 92 45 0 105 4 132 9 85 13 82 14 89 -36z m-323 -29 c23 -74 24
-119 3 -139 -23 -23 -34 -20 -34 12 -1 15 -14 64 -30 110 l-28 83 35 -3 c34
-3 36 -6 54 -63z m1086 -152 c-3 -71 -11 -153 -17 -183 -14 -67 -51 -183 -56
-177 -2 2 3 26 11 53 26 85 45 187 45 244 0 67 11 190 17 190 3 0 2 -57 0
-127z m-225 7 c-16 -36 -20 -39 -25 -21 -3 12 -2 19 2 17 4 -3 13 12 21 32 7
20 15 32 17 25 2 -6 -4 -30 -15 -53z m-465 -22 c-3 -8 -6 -5 -6 6 -1 11 2 17
5 13 3 -3 4 -12 1 -19z m256 -237 c-4 -9 -13 -24 -21 -34 -14 -16 -17 -16 -24
-2 -5 9 -5 22 1 33 6 9 11 11 11 5 0 -7 5 -13 11 -13 6 0 9 6 6 13 -3 8 1 14
8 14 8 0 11 -7 8 -16z m-2185 -30 c33 -17 232 -219 232 -236 0 -9 -44 27 -103
82 -26 25 -53 46 -60 47 -22 3 -38 17 -47 41 -5 13 -18 29 -30 35 -18 10 -20
8 -20 -20 0 -20 5 -30 15 -30 8 0 15 -7 15 -16 0 -8 -4 -13 -9 -10 -5 4 -7 -4
-4 -16 10 -40 -13 -6 -25 38 -12 43 -16 104 -7 104 3 0 22 -9 43 -19z m2070
-28 c5 -10 12 -34 15 -53 6 -31 5 -33 -7 -17 -20 26 -44 21 -61 -13 -9 -17
-11 -30 -5 -30 5 0 10 -5 10 -11 0 -6 -7 -9 -15 -5 -13 5 -14 2 -4 -17 9 -18
9 -20 -1 -10 -10 9 -17 7 -31 -11 -19 -24 -59 -41 -59 -25 0 5 4 9 8 9 4 0 20
26 34 58 30 64 83 142 98 142 5 0 13 -8 18 -17z m102 -3 c0 -5 -5 -10 -11 -10
-5 0 -7 5 -4 10 3 6 8 10 11 10 2 0 4 -4 4 -10z m-356 -102 c28 -48 27 -63 -3
-27 -19 23 -20 23 -21 4 0 -12 5 -26 12 -33 12 -12 2 -17 -19 -9 -13 4 -21
-89 -23 -258 -2 -147 -3 -154 -12 -90 -14 107 -14 395 0 428 16 38 37 34 66
-15z m-1953 -3 c24 -14 52 -25 61 -25 9 0 20 -4 23 -10 10 -17 -62 -11 -80 6
-8 9 -22 13 -31 10 -12 -5 -10 -14 11 -57 15 -28 22 -48 16 -45 -11 7 -81 128
-81 139 0 15 40 6 81 -18z m2628 -79 c-29 -49 -36 -46 -8 4 12 22 24 38 26 36
2 -2 -6 -20 -18 -40z m86 -74 c-3 -3 -11 0 -18 7 -9 10 -8 11 6 5 10 -3 15 -9
12 -12z"/>
<path d="M2561 4466 c2 -2 26 -6 53 -9 30 -3 43 -1 35 4 -13 8 -97 13 -88 5z"/>
<path d="M3017 4316 c-3 -7 6 -11 22 -10 14 0 24 5 21 9 -7 13 -39 13 -43 1z"/>
<path d="M2653 4205 c-172 -86 -250 -270 -193 -456 51 -169 169 -262 335 -263
157 -2 266 66 336 209 32 65 34 76 34 170 0 89 -3 106 -28 158 -38 76 -113
152 -184 184 -44 21 -78 28 -143 31 -81 4 -88 2 -157 -33z m311 -49 c75 -42
114 -88 147 -175 45 -120 8 -282 -88 -374 -65 -64 -114 -82 -223 -82 -83 0
-100 3 -135 24 -67 40 -126 103 -156 166 -24 50 -29 73 -29 135 0 41 5 91 10
110 17 62 73 142 123 178 72 52 110 63 203 59 71 -3 88 -8 148 -41z"/>
<path d="M2733 3945 c-42 -18 -63 -53 -70 -117 -11 -106 31 -178 104 -178 76
0 121 68 109 166 -8 71 -23 100 -61 124 -38 23 -40 24 -82 5z m25 -47 c22 -22
14 -75 -15 -98 -20 -16 -28 -18 -35 -8 -4 7 -8 9 -9 3 -1 -22 -18 32 -18 62
-1 45 47 71 77 41z"/>
<path d="M1636 3947 c-9 -23 -16 -50 -16 -59 0 -21 21 -68 30 -68 15 0 32 114
21 143 -6 15 -12 27 -14 27 -3 0 -12 -19 -21 -43z"/>
<path d="M1804 3938 c-10 -12 -13 -18 -7 -14 42 24 74 -60 33 -86 -20 -13 -26
-33 -12 -41 4 -2 1 -2 -5 -1 -7 2 -13 -3 -13 -11 0 -16 -21 -16 -32 0 -4 6 -8
-3 -8 -18 0 -31 42 -77 69 -77 45 1 81 69 81 152 0 97 -59 150 -106 96z"/>
<path d="M1760 3837 c0 -13 8 -31 17 -38 9 -8 14 -9 10 -2 -4 6 -3 13 2 15 5
1 1 14 -10 27 l-19 23 0 -25z"/>
<path d="M2410 4179 c0 -5 5 -7 10 -4 6 3 10 8 10 11 0 2 -4 4 -10 4 -5 0 -10
-5 -10 -11z"/>
<path d="M2742 3068 c2 -6 10 -13 16 -14 7 -1 8 0 2 3 -5 2 -8 9 -4 14 3 5 0
9 -6 9 -7 0 -10 -5 -8 -12z"/>
<path d="M2590 3036 c0 -3 9 -10 20 -16 11 -6 20 -8 20 -6 0 3 -9 10 -20 16
-11 6 -20 8 -20 6z"/>
<path d="M2537 3009 c-9 -6 -17 -15 -17 -22 0 -7 4 -6 10 3 8 13 11 12 24 -5
12 -17 17 -18 28 -7 11 11 10 12 -5 6 -13 -4 -16 -2 -11 9 7 20 -7 28 -29 16z"/>
<path d="M2600 3000 c0 -5 5 -10 11 -10 5 0 7 5 4 10 -3 6 -8 10 -11 10 -2 0
-4 -4 -4 -10z"/>
<path d="M2475 2920 c-3 -5 -1 -10 4 -10 6 0 11 5 11 10 0 6 -2 10 -4 10 -3 0
-8 -4 -11 -10z"/>
<path d="M3109 2298 c-5 -18 -6 -38 -1 -34 7 8 12 36 6 36 -2 0 -4 -1 -5 -2z"/>
<path d="M3200 2170 c0 -5 7 -7 15 -4 8 4 15 8 15 10 0 2 -7 4 -15 4 -8 0 -15
-4 -15 -10z"/>
<path d="M3260 2150 c-13 -8 -12 -10 3 -10 9 0 17 5 17 10 0 12 -1 12 -20 0z"/>
<path d="M3326 2506 c9 -24 34 -28 34 -6 0 13 -7 20 -20 20 -13 0 -17 -5 -14
-14z"/>
<path d="M2197 1839 c9 -9 8 -19 -8 -43 l-21 -31 26 28 c31 33 32 43 9 52 -14
5 -15 4 -6 -6z"/>
<path d="M2069 1777 c5 -5 19 -7 32 -5 20 3 19 5 -9 9 -20 3 -29 2 -23 -4z"/>
<path d="M4205 1967 c-15 -8 -7 -15 46 -43 78 -42 111 -73 155 -146 51 -83 64
-72 26 22 -30 76 -186 190 -227 167z"/>
<path d="M4571 1924 c0 -11 3 -14 6 -6 3 7 2 16 -1 19 -3 4 -6 -2 -5 -13z"/>
<path d="M4107 1883 c-4 -3 -7 -11 -7 -17 0 -6 5 -5 12 2 6 6 9 14 7 17 -3 3
-9 2 -12 -2z"/>
<path d="M4030 1790 c-8 -16 -8 -18 4 -14 8 3 32 -6 54 -20 100 -63 150 -131
192 -261 31 -94 44 -106 36 -32 -15 141 -95 266 -204 321 -62 31 -68 32 -82 6z"/>
<path d="M3311 1601 c-33 -27 -34 -29 -13 -35 25 -8 62 1 62 15 0 5 -4 9 -10
9 -5 0 -10 -4 -10 -10 0 -5 -8 -10 -17 -10 -14 1 -12 5 10 21 26 20 36 39 20
39 -5 0 -23 -13 -42 -29z"/>
<path d="M3175 1510 c-3 -5 -2 -10 4 -10 5 0 13 5 16 10 3 6 2 10 -4 10 -5 0
-13 -4 -16 -10z"/>
<path d="M3601 1444 c0 -11 3 -14 6 -6 3 7 2 16 -1 19 -3 4 -6 -2 -5 -13z"/>
<path d="M3199 1147 c6 -8 7 -18 3 -22 -4 -5 -1 -5 6 -1 10 6 10 11 1 22 -6 8
-14 14 -16 14 -3 0 0 -6 6 -13z"/>
<path d="M3176 1131 c-4 -7 -5 -15 -2 -18 9 -9 19 4 14 18 -4 11 -6 11 -12 0z"/>
<path d="M1508 2603 c18 -2 45 -2 60 0 15 2 0 4 -33 4 -33 0 -45 -2 -27 -4z"/>
<path d="M2470 2505 c0 -8 4 -15 10 -15 5 0 7 7 4 15 -4 8 -8 15 -10 15 -2 0
-4 -7 -4 -15z"/>
<path d="M2580 2201 c0 -5 5 -13 10 -16 6 -3 10 -2 10 4 0 5 -4 13 -10 16 -5
3 -10 2 -10 -4z"/>
</g>
</svg>
